<?xml version="1.0" ?><svg height="512" id="Layer_1" version="1.1" viewBox="0 0 512 512" width="512" xml:space="preserve" xmlns="http://www.w3.org/2000/svg" xmlns:cc="http://creativecommons.org/ns#" xmlns:dc="http://purl.org/dc/elements/1.1/" xmlns:inkscape="http://www.inkscape.org/namespaces/inkscape" xmlns:rdf="http://www.w3.org/1999/02/22-rdf-syntax-ns#" xmlns:sodipodi="http://sodipodi.sourceforge.net/DTD/sodipodi-0.dtd" xmlns:svg="http://www.w3.org/2000/svg"><defs id="defs12"/><g id="g4127"><rect height="512" id="rect2987" rx="64" ry="64" style="fill:#ece000;fill-opacity:1;fill-rule:nonzero;stroke:none" width="512" x="0" y="0"/><path d="m 254.23192,67.745656 c -24.1553,0.16536 -49.1333,6.57616 -68.7188,22.0625 -14.667,11.577654 -26.19916,26.921164 -33.46871,44.062504 -0.0109,0.0415 -0.0213,0.0832 -0.0312,0.125 -6.92358,17.66206 -6.28241,36.45908 -5.34375,53.875 4.9e-4,0.0106 -4.9e-4,0.0207 0,0.0312 0.57046,12.24111 1.9192,24.09182 0.78125,35.34375 -0.0919,0.43802 -0.096,0.54776 -0.15625,0.8125 -5.44516,0.98701 -11.372,0.62902 -17.25,-0.5 -0.0312,-2.9e-4 -0.0625,-2.9e-4 -0.0937,0 -4.02639,-0.69306 -8.32797,-2.35229 -13.1875,-3.71875 -0.0828,-0.023 -0.16615,-0.0438 -0.25,-0.0625 -4.71633,-1.07824 -9.35242,0.29501 -12.90625,2.9375 -0.0457,0.0296 -0.10985,0.0635 -0.15625,0.0937 -0.071,0.054 -0.14865,0.10124 -0.21875,0.15625 -2.89265,1.9156 -6.854978,5.13197 -7.062498,10.71875 -0.009,0.36655 0.0225,0.73407 0.0937,1.09375 0.62464,3.28299 2.64407,5.68343 4.437498,7.25 1.79342,1.56657 3.48778,2.60119 4.53125,3.40625 0.0814,0.0651 0.16474,0.12762 0.25,0.1875 8.79695,5.93514 18.53281,8.54299 27,11.84375 0.009,0.003 0.0225,-0.003 0.0312,0 5.86205,2.59731 10.95592,6.63609 12.125,11.71875 1.45977,6.42713 -1.2468,13.80558 -4.78125,20.96875 -0.004,0.009 0.004,0.0226 0,0.0312 -9.53334,18.98565 -23.69089,35.49609 -41.093748,47.59375 -9.12374,6.29511 -19.416525,10.9945 -30.156305,13.9064 -0.148149,0.0453 -0.294192,0.0974 -0.4375,0.15625 -2.20374,0.82986 -7.42924,1.37247 -10.71875,6.375 -0.233793,0.34937 -0.423282,0.72835 -0.5625,1.125 -1.10923,3.2168 0.1562,6.67058 1.71875,8.5625 1.4921,1.80662 3.15667,2.85786 4.59375,3.625 0.0735,0.043 0.1451,0.0824 0.21875,0.125 9.04276,5.22608 18.918595,7.49157 27.937505,9.8125 0.0415,0.0109 0.0832,0.0213 0.125,0.0312 6.4981,1.47977 12.488738,2.27029 17.374998,4.375 0.23923,0.40234 0.72852,2.05832 1.875,4.8125 1.60151,4.99968 2.32952,10.9037 4.1875,17.09375 0.50804,1.71342 2.00225,3.09556 3.75,3.46875 4.104,0.87193 6.36119,-0.53617 6.71875,-0.5625 0.16758,-0.0124 0.33452,-0.0333 0.5,-0.0625 15.10019,-2.6468 30.16835,-4.99383 43.99996,-1.5 0.01,0.003 0.021,-0.003 0.031,0 14.516,3.82363 27.1309,13.91446 41.3438,22.59375 0.025,0.0154 0.037,0.0471 0.062,0.0625 l 0,-0.0312 c 9.4342,5.98646 20.3393,11.8485 32.9375,12.28125 l 0,0.0312 c 0.042,10e-4 0.083,-10e-4 0.125,0 9.5155,0.53896 18.855,-0.0657 27.9687,-0.6875 0.0521,8.1e-4 0.1042,8.1e-4 0.1563,0 7.8038,-0.77302 15.3807,-3.37002 22,-7.625 0.094,-0.0535 0.1876,-0.10258 0.2812,-0.15625 14.9452,-8.56344 28.2258,-18.88234 42.7813,-25.34375 0.021,-0.008 0.042,-0.0237 0.062,-0.0312 4.7208,-1.71157 10.6189,-1.61506 17.1875,-2.0625 0.062,-0.002 0.125,0.002 0.1875,0 12.0527,-0.3721 24.1283,0.27414 36.0937,1.875 0.41448,0.0522 0.83552,0.0522 1.25,0 1.5714,-0.1864 3.2889,-1.24155 4.125,-2.3125 0.8361,-1.07095 1.077,-1.94318 1.25,-2.5625 0.3462,-1.23864 0.667,-1.83102 0.094,-0.8125 0.1817,-0.31606 0.3287,-0.65205 0.4375,-1 2.1971,-7.28002 3.3925,-13.86797 6.9375,-17.96875 1.5929,-1.55716 4.334,-2.33886 7.4375,-2.28125 0.22952,0.005 0.45941,-0.005 0.6875,-0.0312 10.4024,-1.23133 19.8052,-4.98696 28.7188,-8.1875 0.10556,-0.0382 0.20984,-0.0799 0.3126,-0.12505 3.3113,-1.44341 8.2453,-3.09963 11.625,-7.84375 0.018,-0.0254 0.044,-0.0369 0.062,-0.0625 l -0.031,-0.0312 c 2.8428,-3.9725 1.523,-9.42469 -2.5,-11.90625 l 0.062,-0.0625 c -0.1275,-0.0867 -0.2474,-0.13595 -0.375,-0.21875 -0.034,-0.0186 -0.059,-0.0444 -0.094,-0.0625 l 0,0.0312 c -4.8259,-3.10006 -9.6612,-3.53092 -12.7187,-4.65625 -0.0621,-0.0221 -0.1246,-0.0429 -0.1875,-0.0625 -20.6872,-6.63568 -38.5778,-20.92111 -51.9375,-38.3125 -7.4172,-9.69129 -13.6899,-20.22202 -17.8438,-31.46875 -0.014,-0.041 -0.018,-0.084 -0.031,-0.125 -1.6262,-4.88353 -1.7077,-10.20902 0.6875,-13.4375 0.0317,-0.0308 0.0631,-0.062 0.094,-0.0937 3.7366,-5.36839 10.5935,-8.81878 17.9063,-11.53125 0.03,-0.0104 0.064,-0.0208 0.094,-0.0312 8.0819,-2.81157 16.9263,-6.08686 24.2187,-12.5625 0.0318,-0.0308 0.0631,-0.062 0.094,-0.0937 1.1283,-1.06695 2.4852,-2.45602 3.5,-4.53125 1.0149,-2.07523 1.4961,-5.31032 0.1563,-8.125 3e-5,-0.0104 3e-5,-0.0208 0,-0.0312 -2.1044,-4.33549 -5.774,-6.5662 -8.5,-8.1875 -0.0103,-3e-5 -0.0207,-3e-5 -0.031,0 -4.5673,-2.66592 -9.8816,-2.83887 -14.5,-1.34375 -0.01,0.003 -0.021,-0.003 -0.031,0 -0.031,0.0101 -0.063,0.021 -0.094,0.0312 -4.9892,1.51835 -9.0624,3.33391 -12.8438,3.8125 -0.0839,0.0187 -0.16722,0.0395 -0.25,0.0625 -5.3737,0.95777 -10.5773,1.18779 -14.625,-0.3125 -0.038,-0.60649 -0.057,-1.79013 -0.2187,-3.25 l 0.031,0 c -0.2988,-8.9153 0.4565,-18.10604 0.5937,-27.625 3e-4,-0.0212 -3e-4,-0.0413 0,-0.0625 0.4112,-14.46318 0.9948,-29.35295 -1.125,-44.34375 -0.009,-0.0731 -0.0191,-0.14607 -0.031,-0.21875 -4.6154,-25.28753 -20.687,-47.06736 -41.0625,-61.562504 -14.8121,-10.50987 -32.3972,-16.37581 -50.25,-18.03125 -0.01,-0.001 -0.021,0.001 -0.031,0 -5.9912,-0.60487 -11.9741,-0.81945 -17.9375,-0.75 z" id="path12604" style="font-size:medium;font-style:normal;font-variant:normal;font-weight:normal;font-stretch:normal;text-indent:0;text-align:start;text-decoration:none;line-height:normal;letter-spacing:normal;word-spacing:normal;text-transform:none;direction:ltr;block-progression:tb;writing-mode:lr-tb;text-anchor:start;baseline-shift:baseline;color:#000000;fill:#ffffff;fill-opacity:1;stroke:none;stroke-width:10;marker:none;visibility:visible;display:inline;overflow:visible;enable-background:accumulate;font-family:Sans;-inkscape-font-specification:Sans"/></g></svg>